<svg width="32" height="32" viewBox="0 0 32 32" fill="none" xmlns="http://www.w3.org/2000/svg">
<path d="M32 16C32 7.16344 24.8366 0 16 0C7.16344 0 0 7.16344 0 16C0 24.8366 7.16344 32 16 32C24.8366 32 32 24.8366 32 16Z" fill="#EAF5FC"/>
<path d="M21.337 12.0207C21.7119 11.6458 21.7119 11.038 21.337 10.6631C20.9621 10.2882 20.3543 10.2882 19.9794 10.6631L10.0233 20.6191C9.64841 20.994 9.64841 21.6019 10.0233 21.9768C10.3982 22.3517 11.0061 22.3517 11.381 21.9768L21.337 12.0207Z" fill="#C0392B"/>
<path d="M19.9792 21.9768C20.3541 22.3517 20.9619 22.3517 21.3368 21.9768C21.7117 21.6019 21.7117 20.9941 21.3368 20.6192L11.3807 10.6631C11.0058 10.2882 10.398 10.2882 10.0231 10.6631C9.64819 11.038 9.64819 11.6458 10.0231 12.0207L19.9792 21.9768Z" fill="#C0392B"/>
</svg>
